<svg enable-background="new 0 0 559.4 406" viewBox="0 0 559.4 406" xmlns="http://www.w3.org/2000/svg"><g fill="#f4f2f0"><path d="m121.6 290.7c-66.4-31.2-107.2-93-76.2-159.4s140.2-104.5 206.8-73.7 49.6 78.6 18.2 145.9-82.3 118.5-148.8 87.2z" transform="matrix(-.8660254 -.5 .5 -.8660254 229.321 350.926)"/><path d="m171.4 339.1c-88.1-41.4-142.2-123.4-101.1-211.6s185.9-138.6 274.3-97.7 65.8 104.3 24.1 193.6-109.1 157.1-197.3 115.7z" transform="matrix(-.37460659 -.92718385 .92718385 -.37460659 309.026 518.717)"/><path d="m89.8 95.8c-24.3-11.4-39.3-34.1-27.9-58.4s51.4-38.3 75.8-27 18.2 28.8 6.7 53.5-30.2 43.4-54.6 31.9z" transform="matrix(-.22495105 -.97437006 .97437006 -.22495105 21.702 408.452)"/><path d="m-37 48.7c-15.8-7.4-25.5-22.1-18.1-38s33.4-24.9 49.2-17.5 11.8 18.7 4.4 34.7-19.6 28.2-35.5 20.8z" transform="matrix(.27563736 .9612617 -.9612617 .27563736 463.789 78.762)"/></g></svg>