<svg enable-background="new 0 0 553.5 385.1" viewBox="0 0 553.5 385.1" xmlns="http://www.w3.org/2000/svg"><g fill="#f4f2f0"><path d="m108.9 166c-66.4-31.2-107.2-93-76.2-159.4s140.1-104.5 206.7-73.7 49.6 78.7 18.2 145.9-82.3 118.5-148.7 87.2z" transform="matrix(.190809 -.98162718 .98162718 .190809 351.607 282.631)"/><path d="m130.4 314.2c-66.9-31.4-107.9-93.7-76.7-160.5s141-105.2 208.1-74.2 49.9 79.2 18.3 146.9-82.8 119.2-149.7 87.8z" transform="matrix(-.8571673 .51503807 -.51503807 -.8571673 358.429 218.622)"/><path d="m107 111.5c-23.3-10.9-37.5-32.5-26.7-55.7s49-36.5 72.3-25.8 17.3 27.5 6.4 51-28.8 41.4-52 30.5z" transform="matrix(-.99026807 -.1391731 .1391731 -.99026807 582.843 429.083)"/></g></svg>