<svg enable-background="new 0 0 630.3 475.4" viewBox="0 0 630.3 475.4" xmlns="http://www.w3.org/2000/svg"><g fill="#fff"><path d="m67.7 192.7c-66.4-31.2-107.2-93-76.2-159.4s140.1-104.5 206.7-73.7 49.5 78.6 18.2 145.9-82.3 118.4-148.7 87.2z" transform="matrix(.839 -.545 .545 .839 0 143.294)"/><path d="m172.7 323c-94.1-44.2-151.8-131.8-108-225.9s198.6-148 293-104.3 70.2 111.4 25.8 206.7-116.7 167.8-210.8 123.5z" transform="matrix(-.48480962 -.87461971 .87461971 -.48480962 430.847 578.736)"/><path d="m47.8 33.5c-23.3-11-37.5-32.6-26.7-55.8s49-36.5 72.3-25.8 17.3 27.5 6.4 51-28.8 41.5-52 30.6z" transform="matrix(.309 -.951 .951 .309 84.398 394.093)"/><path d="m-34.1 39c-14.4-6.8-23.2-20.1-16.5-34.5s30.3-22.6 44.7-15.9 10.7 17 3.9 31.5-17.8 25.7-32.1 18.9z" transform="matrix(.92718385 .37460659 -.37460659 .92718385 55.985 278.286)"/><path d="m-16.4 30.7c-15-7-33-17.1-26-32.1s21.5-36.8 36.5-29.9 28 43.6 20.9 58.8-16.4 10.2-31.4 3.2z" transform="translate(573.76 107.812)"/></g></svg>