<svg enable-background="new 0 0 627.4 417.3" viewBox="0 0 627.4 417.3" xmlns="http://www.w3.org/2000/svg"><g fill="#f4f2f0"><path d="m72.7 229.7c-66.4-31.3-107.2-93.1-76.2-159.5s140.1-104.4 206.7-73.6 49.5 78.6 18.2 145.9-82.3 118.4-148.7 87.2z" transform="matrix(.839 -.545 .545 .839 361.044 262.356)"/><path d="m108.5 342.6c-88.2-41.4-142.3-123.4-101.2-211.6s186-138.6 274.4-97.7 65.8 104.3 24.1 193.6-109.2 157.1-197.3 115.7z" transform="matrix(.12186934 .99254615 -.99254615 .12186934 333.649 36.611)"/><path d="m51.7 92c-24.4-11.4-39.3-34.1-28-58.4s51.4-38.3 75.8-27 18.2 28.8 6.7 53.5-30.2 43.4-54.5 31.9z" transform="matrix(-.996 -.087 .087 -.996 601.742 100.943)"/></g></svg>