<svg enable-background="new 0 0 744.8 578.7" viewBox="0 0 744.8 578.7" xmlns="http://www.w3.org/2000/svg"><g fill="#f4f2f0"><path d="m182.3 321.9c-87.4 12-168.8-23.6-181.1-110.8s72.8-196.9 160-209.4 101.4 46.8 113.8 135-5.4 173.2-92.7 185.2z"/><path d="m744 325.5c8.3 124.6-50 236.2-174.4 244.9s-271.1-122.3-280.2-246.9c-9.1-124.5 76.2-138.5 202.1-147.3 126-8.8 244.2 24.7 252.5 149.3z"/><path d="m115.5 415c-10.1 29.1-34.1 48.9-63.2 38.9s-49.8-53.9-39.9-83.1 30.7-24.2 60.1-14 53.1 29.1 43 58.2z"/></g></svg>