<svg xmlns="http://www.w3.org/2000/svg" width="26.193" height="20.954" viewBox="0 0 26.193 20.954"><path d="M24.264,4H5.929A3.929,3.929,0,0,0,2,7.929H2v13.1H2a3.929,3.929,0,0,0,3.929,3.929H24.264a3.929,3.929,0,0,0,3.929-3.929V7.929h0A3.929,3.929,0,0,0,24.264,4Zm-.877,2.619L15.1,12.84,6.806,6.619Zm.877,15.716H5.929a1.31,1.31,0,0,1-1.31-1.31h0V8.256l9.691,7.269h0a1.31,1.31,0,0,0,.786.262h0a1.31,1.31,0,0,0,.786-.262l9.691-7.269V21.025h0A1.31,1.31,0,0,1,24.264,22.335Z" transform="translate(-2 -4)" fill="#ff3000"/></svg>