<svg xmlns="http://www.w3.org/2000/svg" width="21.053" height="26.316" viewBox="0 0 21.053 26.316"><path d="M7.437,7.36c-.212.255-.4.484-.558.687q-.487.622-.921,1.213c-2.257,3.086-3.326,5.482-3.326,7.03a7.659,7.659,0,0,0,7.895,7.393,7.658,7.658,0,0,0,7.895-7.393c0-2.484-2.592-6.75-7.858-12.438C8.995,5.572,7.947,6.747,7.437,7.36Zm3.089,18.955A10.285,10.285,0,0,1,0,16.291q0-3.341,3.834-8.583h0Q4.59,6.664,5.416,5.675,6.515,4.357,10.526,0,21.052,10.755,21.053,16.291A10.285,10.285,0,0,1,10.526,26.316Zm0-3.947a5.142,5.142,0,0,1-5.263-5.013q0-2.767,5.263-8.145,5.264,5.376,5.263,8.145A5.142,5.142,0,0,1,10.526,22.368ZM7.895,17.355a2.518,2.518,0,0,0,2.632,2.382,2.518,2.518,0,0,0,2.632-2.382c0-.707-.861-2.2-2.632-4.263C8.755,15.151,7.895,16.649,7.895,17.355Z" fill="#ff3000"/></svg>