<svg height="24.831" viewBox="0 0 24.88 24.831" width="24.88" xmlns="http://www.w3.org/2000/svg"><path d="m21.12 26.831a19.145 19.145 0 0 1 -19.12-19.12 5.711 5.711 0 0 1 5.711-5.711 4.892 4.892 0 0 1 .956.087 4.705 4.705 0 0 1 .894.223 1.242 1.242 0 0 1 .807.931l1.7 7.449a1.242 1.242 0 0 1 -.323 1.142c-.161.174-.174.186-1.7.981a12.3 12.3 0 0 0 6.046 6.071c.807-1.54.819-1.552.993-1.713a1.242 1.242 0 0 1 1.142-.323l7.449 1.7a1.242 1.242 0 0 1 .894.807 5.389 5.389 0 0 1 .236.906 5.922 5.922 0 0 1 .074.944 5.711 5.711 0 0 1 -5.761 5.624zm-13.409-22.348a3.24 3.24 0 0 0 -3.228 3.228 16.649 16.649 0 0 0 16.636 16.637 3.24 3.24 0 0 0 3.228-3.228v-.41l-5.76-1.328-.36.683c-.559 1.08-.968 1.862-2.011 1.44a14.712 14.712 0 0 1 -8.916-8.952c-.447-.968.4-1.415 1.465-1.974l.683-.335-1.327-5.761z" fill="#ff3000" transform="translate(-2 -2)"/></svg>