<svg xmlns="http://www.w3.org/2000/svg" width="19.124" height="26.659" viewBox="0 0 19.124 26.659"><path d="M29.053,2.289A9.687,9.687,0,0,0,22.562,0a9.687,9.687,0,0,0-6.491,2.289C14.043,4.086,13,6.781,13,10.142c0,7.273,8.374,15.821,8.751,16.169a1.144,1.144,0,0,0,.811.348,1.1,1.1,0,0,0,.811-.348c.377-.348,8.751-8.9,8.751-16.169,0-3.361-1.043-6.056-3.071-7.853Zm-6.491,21.5a43.386,43.386,0,0,1-3.245-4.057c-2.608-3.709-4-7.012-4-9.591,0-7.244,5.534-7.824,7.244-7.824,6.723,0,7.244,6,7.244,7.824C29.806,15.242,24.62,21.53,22.562,23.79Zm0-18.777a4.68,4.68,0,1,0,4.607,4.665A4.657,4.657,0,0,0,22.562,5.013Zm0,7.331a2.667,2.667,0,1,1,2.579-2.666A2.623,2.623,0,0,1,22.562,12.344Z" transform="translate(-13)" fill="#ff3000"/></svg>