<svg height="24.744" viewBox="0 0 24.744 24.744" width="24.744" xmlns="http://www.w3.org/2000/svg"><path d="m17 13.262 4.441-4.441a3.685 3.685 0 0 0 -5.212-5.21l-1.829 1.835.735 2.739 1.1-1.1a1.229 1.229 0 1 1 1.738 1.737l-3.708 3.707zm-2 2.006-2.739-.734-3.369 3.366 3.267.208zm-2.6-7.817-5.445 5.436.2 3.273 5.969-5.969-.734-2.74zm-5.822 12.761-4.241 4.242a1.228 1.228 0 0 1 -1.737-1.736l4.238-4.238-.4-6.548 10.062-10.059a6.141 6.141 0 0 1 8.722 8.648l-.038.038-10.073 10.069-6.532-.418z" fill="#ff3000" transform="translate(-.255 -.055)"/></svg>