<svg height="24.565" viewBox="0 0 17.196 24.565" width="17.196" xmlns="http://www.w3.org/2000/svg"><path d="m3.685 2.457a1.228 1.228 0 0 0 -1.228 1.228v18.424l3.658-3.337a3.685 3.685 0 0 1 4.967 0l3.658 3.337v-18.424a1.228 1.228 0 0 0 -1.228-1.228zm0-2.457h9.826a3.685 3.685 0 0 1 3.689 3.685v18.424a2.457 2.457 0 0 1 -4.112 1.815l-3.662-3.338a1.228 1.228 0 0 0 -1.656 0l-3.658 3.337a2.457 2.457 0 0 1 -4.112-1.814v-18.424a3.685 3.685 0 0 1 3.685-3.685zm6.141 9.826h2.457a1.228 1.228 0 1 1 0 2.457h-2.457v2.457a1.228 1.228 0 0 1 -2.457 0v-2.457h-2.456a1.228 1.228 0 1 1 0-2.457h2.457v-2.456a1.228 1.228 0 0 1 2.457 0z" fill="#ff3000"/></svg>