<svg height="25.352" viewBox="0 0 25.352 25.352" width="25.352" xmlns="http://www.w3.org/2000/svg"><path d="m13.777 18.11.107-1.5 1.306-.745a16.406 16.406 0 0 0 3.427-2.646c3.72-3.721 4.855-8.1 3.487-9.465s-5.744-.234-9.465 3.488a16.427 16.427 0 0 0 -2.646 3.427l-.747 1.306-1.5.107a5.6 5.6 0 0 0 -3.316 1.391 15.476 15.476 0 0 1 4.721 3.234 15.5 15.5 0 0 1 3.234 4.721 5.6 5.6 0 0 0 1.392-3.318zm-4.189 3.99a9.422 9.422 0 0 1 -.934 1.086q-2.477 2.477-7.473 1.493-.981-4.997 1.494-7.479a9.658 9.658 0 0 1 1.088-.934 12.645 12.645 0 0 0 -3.663-1.137 8.417 8.417 0 0 1 2.075-3.4 8.421 8.421 0 0 1 5.37-2.457 19.214 19.214 0 0 1 3.1-4.023c4.678-4.677 10.7-6.237 13.455-3.487s1.189 8.774-3.487 13.45a19.213 19.213 0 0 1 -4.023 3.1 8.421 8.421 0 0 1 -2.453 5.368 8.39 8.39 0 0 1 -3.4 2.077 12.645 12.645 0 0 0 -1.149-3.657zm-2.43-3.4a3.663 3.663 0 0 0 -.761-.585 5.575 5.575 0 0 0 -1.98 1.33 4.489 4.489 0 0 0 -.69 2.684 4.51 4.51 0 0 0 2.684-.69 5.55 5.55 0 0 0 1.33-1.98 3.663 3.663 0 0 0 -.583-.761zm10.959-10.961a1.409 1.409 0 1 1 1.929-2.054q.033.031.063.063a1.409 1.409 0 0 1 -1.989 1.991z" fill="#ff3000" transform="translate(-.102 -.404)"/></svg>