<svg enable-background="new 0 0 176 63" viewBox="0 0 176 63" xmlns="http://www.w3.org/2000/svg"><g transform="translate(13723 5460)"><path d="m-13712.4-5418.6c-3.3 0-5.8-.9-7.6-2.7s-2.7-4.6-2.7-8.3 1-6.4 2.9-8.2 4.6-2.8 8.1-2.8c1.7 0 3.4.3 5 .9 1.4.5 2.7 1.4 3.6 2.6s1.4 2.7 1.3 4.2h-4.6c0-1.1-.6-2.2-1.5-2.8-1.1-.7-2.4-1.1-3.7-1-1.8-.1-3.6.5-4.9 1.7-1.1 1.4-1.7 3.2-1.6 5v.9c-.1 1.8.4 3.6 1.5 5.1 1.2 1.2 2.8 1.8 4.5 1.7 1.5.1 2.9-.4 4.2-1.2 1.1-.7 1.7-1.9 1.7-3.2h-6.4v-3.7h10.9v11.6h-3.1l-.4-2.4c-.9.9-2 1.6-3.1 2.1-1.4.3-2.7.5-4.1.5zm18.5 0c-1.2 0-2.4-.3-3.5-1s-1.6-1.9-1.6-3.6c-.1-1.9.9-3.6 2.6-4.4 2.3-1 4.8-1.4 7.3-1.3v-1.1c0-.6-.1-1.2-.5-1.7-.5-.5-1.2-.7-1.8-.6-.7-.1-1.4.1-2 .4-.4.2-.6.6-.6 1v.5h-4.1c0-.2 0-.5 0-.7 0-1.3.7-2.6 1.8-3.3 1.4-.9 3.1-1.3 4.8-1.2 1.8-.1 3.5.3 5 1.4 1.1 1 1.8 2.4 1.7 3.9v7.2c0 .3.1.6.3.8s.5.3.8.3h.9v3c-.8.4-1.6.5-2.4.5-.7 0-1.5-.2-2.1-.6s-1-.9-1.2-1.6h-.2c-.6.7-1.3 1.2-2.1 1.6-1.09999999999.3-2.09999999999.5-3.09999999999.5zm1.3-3.4c1 .1 2-.3 2.6-1 .6-.8.9-1.7.8-2.7v-.5c-3.7 0-5.5.8-5.5 2.5 0 .5.2.9.5 1.2.5.4 1 .6 1.6.5zm12.2-19.4h4.2v22.4h-4.2zm12.3 22.8c-1.2 0-2.4-.3-3.5-1s-1.6-1.9-1.6-3.6c-.1-1.9.9-3.6 2.6-4.4 2.3-1 4.8-1.4 7.3-1.3v-1.1c0-.6-.1-1.2-.5-1.7-.5-.5-1.2-.7-1.8-.6-.7-.1-1.4.1-2 .4-.4.2-.6.6-.6 1v.5h-4.1c0-.2 0-.5 0-.7 0-1.3.7-2.6 1.8-3.3 1.4-.9 3.1-1.3 4.8-1.2 1.8-.1 3.5.3 5 1.4 1.1 1 1.8 2.4 1.7 3.9v7.2c0 .3.1.6.3.8s.5.3.8.3h.9v3c-.8.4-1.6.5-2.4.5-.7 0-1.5-.2-2.1-.6s-1-.9-1.2-1.6h-.2c-.6.7-1.3 1.2-2.1 1.6-.99999999999.3-1.99999999999.5-3.09999999999.5zm1.4-3.4c1 .1 2-.3 2.6-1 .6-.8.9-1.7.8-2.7v-.5c-3.7 0-5.5.8-5.5 2.5 0 .5.2.9.5 1.2.4.4 1 .6 1.6.5zm16.5 3.4c-1.2.1-2.4-.3-3.3-1.2-.7-.9-1-2-1-3.1v-8.8h-2v-3.5h2.1l.7-4.6h3.4v4.6h2.8v3.5h-2.8v8.4c-.1.6.4 1.2 1 1.3h.3 1.5v3c-.4.1-.9.3-1.3.3s-.9.1-1.4.1zm12.7 0c-2.6 0-4.6-.7-5.9-2.1s-1.9-3.5-1.9-6.4.6-5.1 1.9-6.4 3.2-2.1 5.9-2.1c2-.2 4 .6 5.4 2.1 1.2 1.4 1.8 3.5 1.8 6.4v1h-10.7c0 1.1.3 2.3.9 3.2.7.8 1.7 1.1 2.7 1 .8 0 1.6-.2 2.2-.7s.9-1.3.8-2.1h4.2c.1 1.8-.6 3.5-2 4.6-1.6 1-3.5 1.6-5.3 1.5zm2.8-10.4c0-2.3-.9-3.4-2.8-3.4-.9-.1-1.8.2-2.4.8-.6.7-1 1.6-1 2.5h6.2zm11.4 10.4c-1.2 0-2.4-.3-3.5-1s-1.6-1.9-1.6-3.6c-.1-1.9.9-3.6 2.6-4.4 2.3-1 4.8-1.4 7.3-1.3v-1.1c0-.6-.1-1.2-.5-1.7-.5-.5-1.2-.7-1.8-.6-.7-.1-1.4.1-2 .4-.4.2-.6.6-.6 1v.5h-4.1c0-.2 0-.5 0-.7 0-1.3.7-2.6 1.8-3.3 1.4-.9 3.1-1.3 4.8-1.2 1.8-.1 3.5.3 5 1.4 1.1 1 1.8 2.4 1.7 3.9v7.2c0 .3.1.6.3.8s.5.3.8.3h.9v3c-.8.4-1.6.5-2.4.5-.7 0-1.5-.2-2.1-.6s-1-.9-1.2-1.6h-.2c-.6.7-1.3 1.2-2.1 1.6-1 .3-2 .5-3.09999999999.5zm1.4-3.4c1 .1 2-.3 2.6-1 .6-.8.9-1.7.8-2.7v-.5c-3.7 0-5.5.8-5.5 2.5 0 .5.2.9.5 1.2.4.4 1 .6 1.6.5z" fill="#fff"/><path d="m-13589.3-5442.6c0 .6-.1 1.3-.2 1.9s-.3 1.2-.6 1.7c.2.3.2.6.2.9s-.1.6-.2.8c-.1.3-.3.6-.4.8-.1.3-.3.5-.3.8-.3.1-.5.3-.6.5s-.1.5-.1.7-.1.5-.2.7c-.1.3-.4.4-.7.5h-.2c.2.2.4.5.4.8 0 .2-.2.4-.3.6-.2.2-.4.3-.7.5-.2.1-.5.3-.7.5.1 0 .1.1.1.1l.1.1c-.2.2-.4.3-.6.5s-.4.3-.6.5-.4.4-.5.6-.2.5-.3.7c-.1.1-.2.1-.3.2-.1 0-.2.1-.3.1s-.2 0-.3.1c-.1 0-.2.1-.2.2v.4c-.3 0-.6.1-.8.2s-.5.3-.7.4c-.2.2-.4.4-.6.6s-.4.4-.6.6-.1-.1-.1-.1-.1 0-.1-.1c-.1 0-.3 0-.4.1s-.2.2-.3.3c-.1.2-.2.4-.4.5-.1.2-.3.3-.4.5s-.1.4-.1.6c0 .3.2.5.3.7-.1.2-.2.5-.1.8 0 .3.1.5.2.8.1.2.1.5.1.7s-.1.4-.2.5c0 .1 0 .2.1.4 0 .1.1.2.3.3h.3c0 .4-.1.7-.1 1.1s0 .9-.1 1.3c0 .5-.1.9-.1 1.3 0 .3-.1.6-.3.9.1.1.3.3.4.4s.2.3.2.5-.1.4-.2.6-.2.4-.3.5c-.1.2-.2.3-.2.5s0 .4.1.5c-.3.1-.5.3-.6.6s-.2.6-.2.8v.9c0 .3 0 .6-.1.8s-.2.4-.3.6-.2.4-.3.6c-.2.4-.4.8-.6 1.3-.2.4-.4.9-.5 1.3 0 .1-.1.2-.1.3s-.1.2-.1.3c-.2-.1-.4-.1-.5 0s-.2.2-.3.3-.2.2-.3.3c-.2.1-.4.2-.6.1v.1c-.1.4-.3.8-.6 1-.4.3-.8.6-1.2.8-.5.3-.9.5-1.3.8-.4.2-.8.5-1.1.8-.3 0-.6 0-.9.2s-.6.3-.8.5c-.3.1-.6.2-.9.3-.4 0-.8-.2-1-.4-.1 0-.1 0-.2 0h-.1s0 0-.1 0l-.1.1c-.3-.2-.5-.4-.7-.6-.2-.3-.3-.6-.4-.9l.1-.1.1-.1c-.2-.1-.4-.3-.5-.6s-.1-.5-.1-.8 0-.6 0-.9c0-.2 0-.5-.1-.7.2 0 .5-.1.6-.3.2-.2.3-.3.5-.5 0-.1-.1-.2-.1-.3s0-.2 0-.3c0-.3 0-.6.2-.9.1-.3.2-.6.4-.9l.5-.8c.2-.3.3-.6.4-.9.3-.2.6-.5.9-.9.2-.3.4-.7.6-1.1.1-.1.1-.3.2-.4.1-.2.2-.4.3-.5.1-.2.2-.3.4-.5.1-.1.3-.2.4-.3 0-.1 0-.2 0-.2 0-.3.1-.5.3-.7l.6-.6c.2-.2.3-.4.4-.6.1-.3 0-.6-.1-.9.5-.4.9-.8 1.2-1.4.3-.5.6-1 .8-1.5s.5-1 .8-1.5.6-1 1-1.3h.1c0-.2-.1-.5-.2-.7-.1-.1-.2-.2-.3-.3-.2 0-.3-.1-.5-.1s-.4 0-.6-.1-.5-.2-.7-.3c-.3-.2-.6-.4-.8-.7-.2-.1-.4-.2-.5-.4-.1-.1-.2-.3-.2-.4-.1-.1-.1-.3-.2-.4-.1-.2-.2-.4-.3-.5.3-.2.5-.4.4-.6 0-.2-.1-.5-.2-.7s-.2-.4-.3-.6-.1-.3 0-.4c.1-.2.2-.3.4-.3s.3-.1.5-.1c0-.1 0-.3.1-.4s.2-.3.3-.4.2-.2.4-.3c.1-.1.3-.1.4-.2h.4c.1 0 .2-.1.3-.1s.1-.1.2-.2c0-.1.1-.1.1-.1v-.2c.3-.1.5 0 .8.1.2.1.4.3.6.5s.4.3.6.5c.2.1.5.2.7.1.1.1.2.2.3.2.1.1.2.1.3.2.1 0 .1-.1.2-.2s.1-.1.3 0l-.2.2 1 .9.7-.8h-.1l-.2-.2c0-.1.1-.2.2-.3s.2-.2.2-.3-.1-.1-.1-.1h.1c.4 0 .6 0 .7-.1s.1-.3.1-.5.1-.4.1-.6c.1-.2.2-.4.6-.5-.3-.3-.4-.5-.3-.6s.2-.2.3-.3c.2-.1.3-.2.5-.2.2-.1.3-.3.3-.5 0-.1 0-.1 0-.2s0-.1 0-.2c0-.4.1-.7.3-1s.4-.6.7-.9c.2-.3.4-.6.6-.9s.3-.7.2-1c0-.1 0-.2 0-.2.2-.4.4-.7.6-1s.5-.7.7-1 .4-.7.6-1 .3-.7.4-1.1h.3c.1 0 .2-.1.2-.2s0-.2 0-.2c0-.1 0-.1 0-.2h.3c.1 0 .1-.1.2-.2l.1-.1.1-.1c0-.5.2-.9.5-1.3.3-.3.6-.6 1-1 .7-.2 1.4-.1 2 .3-.19999999999.3.20000000001.9.40000000001 1.5zm-1.6 2.2c-.1-.1-.2-.2-.2-.4s-.1-.4-.1-.6-.1-.4-.2-.6-.2-.3-.4-.3h-.1c-.3.3-.5.6-.7 1s-.5.7-.7 1.1-.4.8-.6 1.1c-.2.4-.4.7-.6 1 0 .1-.1.3-.3.5s-.3.6-.5.9-.4.6-.5.9c-.2.3-.2.4-.3.4-.1.3-.2.7-.3 1-.1.4-.3.7-.4 1-.2.3-.4.6-.6.9s-.4.5-.7.7 0 0 0 0v.1c.3.4.3.7.2.9s-.2.4-.4.6-.4.4-.6.6-.3.5-.3.9c0 .2 0 .4.1.5h.5c.2-.2.4-.5.6-.8.1-.3.3-.5.5-.8.2-.2.4-.5.6-.6.3-.2.6-.3 1-.2v-.4c.6-.5 1-1.1 1.4-1.8s.6-1.4.7-2.2c.2-.1.4-.2.6-.4.1-.2.2-.4.2-.6.1-.2.1-.4.2-.7.1-.2.3-.4.5-.6h.1c0-.1 0-.2 0-.2 0-.1 0-.2 0-.2 0-.3.1-.5.2-.8.1-.2.2-.5.4-.7s.3-.4.5-.7c-.1-.1.1-.3.2-.5zm-12.7 14.9c-.1-.1-.2-.3-.3-.5 0-.2 0-.4-.1-.5 0-.2 0-.3-.1-.5s-.2-.3-.4-.4c-.1.1-.3.1-.4.1-.2 0-.4 0-.6 0s-.4-.1-.6-.1c-.1 0-.3-.1-.4-.2-.4.2-.7.6-.9 1-.1.4-.2.9-.1 1.3v.1.2.3c.2.2.4.4.7.4.2 0 .4-.1.6-.2s.4-.3.6-.4c.2-.2.4-.3.6-.4.3.3.8.2 1.1-.1.3 0 .3-.1.3-.1zm1.1 10.8c0-.1 0-.2 0-.4 0-.1.1-.2.2-.3-.1-.1-.2-.2-.2-.3s0-.2 0-.3v-.3c0-.1 0-.2-.1-.3.1-.3.1-.6.1-1 0-.3 0-.6 0-1 0-.3-.1-.6-.1-1 0-.3-.1-.6 0-1-.3-.1-.4-.1-.5-.1-.1.1-.1.2-.1.2 0 .1 0 .2-.1.3 0 .1-.2.1-.4.1v.1c.1.2.1.3-.1.5-.1.2-.3.4-.5.5-.2.2-.3.4-.5.6s-.2.4-.2.6c-.2.1-.4.3-.5.6-.1.2-.2.5-.3.7s-.2.5-.3.7-.4.4-.6.4l-.1.1c-.1.2-.2.5-.3.7s-.2.4-.3.5c-.1.2-.2.3-.3.5s-.3.4-.4.6c-.3.4-.6.8-.9 1.3-.3.4-.4.9-.5 1.4-.3 0-.7.2-.9.5s-.3.5-.4.9c-.1.3-.2.6-.2 1-.1.3-.2.6-.4.8-.2.3-.5.7-.8 1.1-.3.3-.5.7-.7 1.1s-.4.8-.5 1.2-.2.8-.2 1.3c.2.2.4.4.7.5s.5.2.8.4c.3 0 .6-.1.9-.2.2-.1.5-.2.7-.4.2-.1.4-.3.7-.5.2-.2.5-.3.7-.5.3 0 .6 0 .9-.1s.5-.2.7-.4.4-.4.6-.6.4-.5.5-.7c.2-.3.4-.6.6-.9s.5-.5.8-.7 0 0 0 0c-.1-.1-.1-.2-.1-.3s-.1-.2-.1-.3c0-.4.1-.7.4-1 .2-.3.5-.6.7-.8s.4-.5.5-.8c.1-.4 0-.8-.3-1.1.3-.2.5-.4.6-.8.1-.3.2-.6.2-.9s.1-.6.2-.9.3-.6.6-.9l.1-.1zm24.9-13.2c.1.2 0 .5-.1.6-.1.2-.3.3-.5.5-.2.1-.4.2-.6.3s-.4.2-.6.3c-.8.1-1.5.2-2.1.3s-1.3.1-2.1.2c-.2 0-.4 0-.6 0s-.4-.1-.6-.1c-.1 0-.2 0-.3 0s-.2 0-.3 0c-.3 0-.6.1-.8.4-.1.2-.2.5-.3.8s-.2.6-.3.8c-.1.3-.4.5-.7.5v.2c0 .1.1.1.1.2-.3 0-.5.2-.6.4s-.2.4-.3.7c-.1.2-.2.4-.3.5s-.4.2-.7.1c-.5.5-1.2 1-1.9 1.3s-1.5.5-2.2.6c-.1-.1-.3-.2-.4-.3s-.2-.2-.4-.3c-.1-.1-.3-.2-.4-.2-.2 0-.3-.1-.5 0 0-.3-.1-.7-.2-1s-.3-.6-.5-.9c0-.3 0-.6.1-.8.1-.3.2-.5.4-.8.1-.2.2-.5.3-.8s.1-.6 0-.9c.2-.1.3-.2.4-.3s.1-.3.1-.4.1-.3.1-.4c.1-.1.2-.3.4-.3-.1-.3-.1-.6.1-.9.2-.2.4-.4.7-.5s.5-.3.7-.5.3-.5.3-.8c.1-.1.2-.2.4-.2.1-.1.3-.1.4-.2s.3-.1.4-.2.2-.2.3-.3c-.1-.1-.2-.2-.2-.3s0-.2.1-.3c0-.1.1-.2.1-.3s0-.2 0-.3c.4.1.8 0 1.2-.1.4-.2.7-.4 1-.6s.6-.3 1-.4.8.1 1.1.3c0 .1.1.3.1.5.1.2.1.5.2.7s.1.5.2.7c0 .2.1.3.1.5l-.1 2c.4.3.9.5 1.5.6.5.1 1 0 1.5-.3.1.2.3.2.5.2.2-.1.3-.2.5-.2.2-.1.3-.1.5-.1s.3.1.5.4c.2-.2.5-.3.8-.4.3 0 .5-.1.8-.1h.8c.4.2.6.1.9-.1zm-9.8.1c0-.3.1-.5.2-.8s.2-.6.2-.8c.1-.3.1-.5 0-.8s-.2-.5-.5-.7c-.2.1-.3.2-.5.4l-.4.5c-.1.2-.3.3-.4.4-.2.1-.4.1-.6.1-.1.2-.1.3 0 .5.1.1.2.3.3.4s.2.2.3.4c.1.1.1.3.1.5.1.1.2.1.3.1s.2.1.4.1h.4c0-.1.1-.2.2-.3zm-.2 2c-.3 0-.6-.1-.9-.3-.2-.2-.5-.4-.7-.6s-.5-.4-.7-.6c-.3-.2-.6-.3-.9-.4-.2.2-.3.4-.6.6-.2.2-.4.3-.6.6-.2.2-.3.4-.3.6-.1.3 0 .6.1.8-.4.1-.7.4-.8.8-.2.4-.3.7-.3 1.1-.1.4-.1.8-.2 1.2 0 .4-.2.8-.4 1.1l.6-.4c.1 0 .1.1.2.2v.2c.1-.1.3-.2.5-.3s.3-.1.5-.2.4-.1.5-.1c.2 0 .4-.1.5-.1.4.3.7.3.9.2.2-.2.4-.4.5-.6.1-.3.3-.5.4-.8s.4-.5.7-.5l-.2-.2c.3-.3.6-.7.8-1.1.2-.3.4-.7.4-1.2zm23.7-1.6c.1.2 0 .5-.1.6-.1.2-.3.3-.5.5-.2.1-.4.2-.6.3s-.4.2-.6.3c-.8.1-1.5.2-2.1.3s-1.3.1-2.1.2c-.2 0-.4 0-.6 0s-.4-.1-.6-.1c-.1 0-.2 0-.3 0s-.2 0-.3 0c-.3 0-.6.1-.8.4-.1.2-.2.5-.3.8s-.2.6-.3.8c-.1.3-.4.5-.7.5v.2c0 .1.1.1.1.2-.3 0-.5.2-.6.4s-.2.4-.3.7c-.1.2-.2.4-.3.5s-.4.2-.7.1c-.5.5-1.2 1-1.9 1.3s-1.5.5-2.2.6c-.1-.1-.3-.2-.4-.3s-.2-.2-.4-.3c-.1-.1-.3-.2-.4-.2-.2 0-.3-.1-.5 0 0-.3-.1-.7-.2-1s-.3-.6-.5-.9c0-.3 0-.6.1-.8.1-.3.2-.5.4-.8.1-.2.2-.5.3-.8s.1-.6 0-.9c.2-.1.3-.2.4-.3s.1-.3.1-.4.1-.3.1-.4c.1-.1.2-.3.4-.3-.1-.3-.1-.6.1-.9.2-.2.4-.4.7-.5s.5-.3.7-.5.3-.5.3-.8c.1-.1.2-.2.4-.2.1-.1.3-.1.4-.2s.3-.1.4-.2.2-.2.3-.3c-.1-.1-.2-.2-.2-.3s0-.2.1-.3c0-.1.1-.2.1-.3s0-.2 0-.3c.4.1.8 0 1.2-.1.4-.2.7-.4 1-.6s.6-.3 1-.4.8.1 1.1.3c0 .1.1.3.1.5.1.2.1.5.2.7s.1.5.2.7c0 .2.1.3.1.5l-.1 2c.4.3.9.5 1.5.6.5.1 1 0 1.5-.3.1.2.3.2.5.2.2-.1.3-.2.5-.2.2-.1.3-.1.5-.1s.3.1.5.4c.2-.2.5-.3.8-.4s.5-.1.8-.1h.8c.4.2.7.1.9-.1zm-9.8.1c0-.3.1-.5.2-.8s.2-.6.2-.8c.1-.3.1-.5 0-.8s-.2-.5-.5-.7c-.2.1-.3.2-.5.4l-.4.5c-.1.2-.3.3-.4.4-.2.1-.4.1-.6.1-.1.2-.1.3 0 .5.1.1.2.3.3.4s.2.2.3.4c.1.1.1.3.1.5.1.1.2.1.3.1s.2.1.4.1h.4c.1-.2.2-.2.2-.3zm-.2 2c-.3 0-.6-.1-.9-.3-.2-.2-.5-.4-.7-.6s-.5-.4-.7-.6c-.3-.2-.6-.3-.9-.3-.2.2-.3.4-.6.6-.2.2-.4.3-.6.6-.2.2-.3.4-.3.6-.1.3 0 .6.1.8-.4.1-.7.4-.8.8-.2.4-.3.7-.3 1.1-.1.4-.1.8-.2 1.2 0 .4-.2.8-.4 1.1l.6-.4c.1 0 .1.1.2.2v.2c.1-.1.3-.2.5-.3s.3-.1.5-.2c.2 0 .4-.1.5-.1.2 0 .4-.1.5-.1.4.3.7.3.9.2.2-.2.4-.4.5-.6.1-.3.3-.5.4-.8s.4-.5.7-.5l-.2-.2c.3-.3.6-.7.8-1.1.3-.4.4-.8.4-1.3zm26.2.9c-.3.7-.7 1.3-1.1 1.9-.3.4-.6.8-1 1.1s-.8.6-1.3.8-1.1.6-1.8 1c-.3 0-.6.1-.9.2s-.6.2-.9.4c-.5-.1-.9-.2-1.4-.4-.4-.2-.8-.5-1.2-.9-.1-.1-.2-.2-.2-.3s-.1-.2-.2-.3c-.1-.2-.3-.4-.3-.6-.1-.2-.1-.4-.1-.7s-.1-.6-.3-.8c-.1-.2-.4-.1-.8.2l-.2-.2h-.1c-.2.1-.3.2-.4.3s-.2.2-.3.3-.2.2-.3.3-.2.2-.3.4c-.2.2-.4.5-.7.8-.2.3-.5.4-.9.5l-.1.1s-.1.1-.2.1-.2 0-.4 0c-.1 0-.2-.1-.3-.2-.2 0-.4 0-.5.1-.2.1-.3.2-.4.3s-.3.3-.4.4-.2.3-.4.4c-.2-.1-.5-.1-.7-.1-.2.1-.5.1-.7.2s-.4.1-.7.1-.5-.2-.6-.4c-.1-.5-.2-1-.2-1.4-.1-.4-.1-.7-.1-1s-.1-.5-.1-.6c.1-.1.1-.2.1-.3s0-.2 0-.4c0 0 0 0 0-.1 0 0 0 0-.1 0 .1-.1.2-.1.2-.2s.1-.2.2-.2c0-.1-.1-.3-.2-.5s-.1-.3-.1-.5c.1-.1.1-.2.1-.2.1 0 .2 0 .3-.1 0-.1 0-.2-.1-.2 0-.1 0-.2 0-.2 0-.2 0-.3.1-.4s.2-.2.3-.4c.1-.1.2-.3.2-.4.1-.2.1-.3.1-.5v-.1c.2 0 .4 0 .5-.2.1-.1.2-.3.2-.5s0-.4 0-.6.1-.3.2-.4c0-.1.1-.1.2-.1h.2c.1-.1.1-.2.2-.3 0-.1 0-.2 0-.3.1 0 .2 0 .3-.1l.2-.2.1-.2c0-.1.1-.2.2-.2 0-.3.1-.7.4-.9.2-.2.5-.3.8-.4s.6-.2.9-.4.5-.5.6-.8c.2.1.4.2.6.1s.3-.2.4-.3.3-.2.5-.2.4.1.6.4c.1-.3.3-.5.6-.5s.6.1.8.2c.2 0 .5.2.6.4s.2.5.3.7c.1.3.2.5.3.8.1.2.2.5.4.6.1-.4.2-.9.3-1.3s.3-.9.5-1.3c.1.2.3.2.5.1v-.1c0-.3.1-.5.2-.7s.2-.4.4-.6c.1-.2.2-.4.2-.7s-.1-.6-.2-.8c.3-.1.5-.2.6-.5.1-.2.2-.5.3-.8s.2-.6.3-.8c.1-.3.3-.5.5-.7 0-.1 0-.1 0-.2s0-.1 0-.2.1-.3.2-.3.2-.2.3-.3.2-.2.3-.3.1-.3.1-.5c.2-.3.4-.6.5-.9.1-.4.3-.7.5-1 .1-.3.3-.5.6-.7.2-.2.6-.1.8.1.1.2.1.4.1.5 0 .2-.1.4-.3.5.1.1.2.2.2.3-.1.5-.2 1-.3 1.6-.2.5-.3 1-.5 1.5l.1.1.1.1c-.3.4-.5.8-.7 1.2s-.4.9-.5 1.3c-.1.2-.1.4-.2.6 0 .2-.1.4-.2.6s-.2.3-.3.5-.2.4-.3.6c-.2.4-.4.8-.5 1.2-.2.4-.3.8-.4 1.2-.2.5-.4 1-.6 1.4-.2.5-.4.9-.7 1.4v.4c0 .2-.1.3-.2.4s-.2.1-.3.2-.3.1-.4.2-.2.3-.3.5c.2.3.2.7.1 1s-.2.6-.3.9-.2.6-.3.9c0 .3.1.7.3.9 0 .3 0 .6.2.8.1.2.3.4.5.5s.4.3.6.4.3.3.5.4c.2-.2.4-.3.6-.4s.4-.1.6-.2c.2 0 .4-.1.6-.1s.4-.1.6-.1c.3-.1.7-.2.9-.4s.3-.3.3-.3c0-.2.1-.4.3-.4.2-.1.4-.1.6-.1s.4 0 .6-.1c.2 0 .4-.2.5-.4.2 0 .4 0 .5-.2.1-.1.3-.3.4-.4s.2-.3.4-.4c-.2-.1 0-.1.09999999999 0zm-10.3-4.3c-.2-.2-.4-.4-.5-.7s-.2-.5-.2-.8-.1-.5-.2-.8-.3-.5-.5-.6-.1 0-.3 0c-.1 0-.2 0-.3.1.1.1.2.2.2.3v.3c0 .1-.1.2-.1.3-.1.1-.1.2-.2.3 0 0-.1 0-.2 0-.1-.1-.2-.1-.2-.1-.2.3-.6.6-1 .7s-.8.2-1.2.3c0 .1.1.2.1.2 0 .1.1.1.1.2-.5.3-.9.7-1.1 1.2s-.5 1-.7 1.5-.4 1-.7 1.5-.7.9-1.2 1.2c.1.1.1.3.2.4 0 .2.2.3.3.3 0 .2.1.4 0 .6 0 .2 0 .4-.1.6 0 .2-.1.4-.1.6v.6.1c.4.2.8.2 1.2.1.3-.1.6-.3.8-.6.2-.2.5-.4.8-.6s.8-.2 1.1-.1l.1-.1c0-.1-.1-.2-.1-.2 0-.1 0-.2 0-.2 0-.2.1-.3.2-.4s.2-.2.3-.4c.1-.1.2-.3.4-.4.1-.2.2-.3.3-.5.1-.1.2-.3.4-.4s.4-.1.5 0l.5-1.8c0-.1.1-.2.2-.2.1-.1.3-.1.4-.2s.2-.2.2-.3-.1-.3-.3-.5c0-.1.1-.2.1-.3s0-.2.1-.3c0-.1.1-.1.1-.2.1 0 .1-.1.3 0z" fill="#00a36c"/></g></svg>